<svg width="70" height="18" viewBox="0 0 70 18" fill="none" xmlns="http://www.w3.org/2000/svg">
<g filter="url(#filter0_d_2_4)">
<path d="M7.94658 8.98023L4.9892 8.9792L4.99224 0.251924L8.00928 0.252975C8.87576 0.253277 9.62002 0.428252 10.2421 0.777901C10.8669 1.12471 11.3469 1.62346 11.6819 2.27414C12.0169 2.92483 12.1842 3.70329 12.1839 4.60954C12.1836 5.51863 12.0143 6.29983 11.676 6.95312C11.3405 7.60641 10.856 8.10766 10.2223 8.45687C9.59153 8.80608 8.83295 8.98053 7.94658 8.98023ZM6.57064 7.61185L7.87036 7.6123C8.47831 7.61251 8.98545 7.50189 9.39178 7.28045C9.79811 7.05616 10.1036 6.72245 10.3083 6.27934C10.513 5.83339 10.6155 5.27661 10.6157 4.609C10.616 3.94138 10.5139 3.38737 10.3095 2.94696C10.1051 2.50371 9.80265 2.17263 9.40216 1.95374C9.00451 1.73202 8.51023 1.62105 7.91932 1.62084L6.57273 1.62037L6.57064 7.61185ZM13.6845 8.98223L13.6876 0.254954L19.3637 0.256931L19.3632 1.58222L15.2681 1.58079L15.2672 3.95011L19.0684 3.95143L19.0679 5.27671L15.2668 5.27539L15.2659 7.65749L19.3952 7.65893L19.3947 8.98422L13.6845 8.98223ZM25.7187 2.65829C25.679 2.28612 25.5115 1.99629 25.2161 1.7888C24.9236 1.58131 24.5429 1.47749 24.0742 1.47732C23.7447 1.47721 23.462 1.52683 23.2261 1.62618C22.9903 1.72552 22.8099 1.8604 22.6848 2.03082C22.5597 2.20123 22.4958 2.39581 22.4928 2.61456C22.4928 2.79637 22.5339 2.95406 22.6163 3.08761C22.7014 3.22116 22.8164 3.33484 22.9613 3.42864C23.1062 3.5196 23.2666 3.59636 23.4428 3.65892C23.6189 3.72148 23.7964 3.7741 23.9754 3.81678L24.7935 4.02161C25.123 4.09843 25.4397 4.20223 25.7437 4.33302C26.0504 4.46381 26.3245 4.62868 26.5659 4.82762C26.8102 5.02657 27.0033 5.2667 27.1452 5.548C27.2872 5.82929 27.3581 6.15887 27.3579 6.53671C27.3578 7.04807 27.2269 7.49831 26.9654 7.88742C26.7039 8.27369 26.326 8.57612 25.8316 8.7947C25.34 9.01043 24.7448 9.11818 24.046 9.11794C23.367 9.1177 22.7775 9.01238 22.2776 8.80198C21.7805 8.59158 21.3914 8.28463 21.1103 7.88112C20.8321 7.47761 20.6817 6.98608 20.6591 6.40653L22.2145 6.40707C22.2371 6.71106 22.3308 6.96393 22.4955 7.16569C22.6602 7.36746 22.8746 7.5181 23.1388 7.61762C23.4058 7.71715 23.7041 7.76697 24.0337 7.76708C24.3774 7.7672 24.6786 7.71617 24.9371 7.61399C25.1985 7.50896 25.4031 7.36415 25.5509 7.17954C25.6987 6.99209 25.7741 6.77337 25.777 6.52337C25.7742 6.2961 25.7075 6.10857 25.5769 5.9608C25.4463 5.81019 25.2631 5.68512 25.0273 5.58561C24.7944 5.48326 24.5217 5.39225 24.2092 5.3126L23.2164 5.05657C22.4977 4.87166 21.9296 4.59163 21.5122 4.21649C21.0975 3.8385 20.8903 3.33701 20.8905 2.71201C20.8907 2.1978 21.0301 1.74757 21.3086 1.3613C21.59 0.975037 21.9722 0.675454 22.4552 0.462554C22.9383 0.246813 23.4852 0.139049 24.096 0.139262C24.7153 0.139478 25.2579 0.247622 25.7237 0.463693C26.1924 0.676925 26.5602 0.973928 26.8271 1.3547C27.094 1.73264 27.2316 2.16734 27.24 2.65882L25.7187 2.65829ZM28.7665 8.98748L28.7696 0.260209L30.3505 0.26076L30.3491 4.2707L30.4557 4.27074L33.8619 0.261983L35.7923 0.262656L32.4159 4.17767L35.8191 8.98994L33.9185 8.98928L31.3161 5.24689L30.3484 6.3886L30.3475 8.98803L28.7665 8.98748ZM36.8876 8.99031L36.8907 0.263039L38.4716 0.26359L38.4691 7.66558L42.3128 7.66692L42.3123 8.9922L36.8876 8.99031ZM43.6845 8.99268L43.6875 0.265407L49.3637 0.267385L49.3632 1.59267L45.2681 1.59124L45.2672 3.96056L49.0684 3.96188L49.0679 5.28717L45.2668 5.28584L45.2659 7.66795L49.3952 7.66938L49.3947 8.99467L43.6845 8.99268ZM55.7187 2.66875C55.679 2.29657 55.5115 2.00674 55.2161 1.79925C54.9236 1.59177 54.5429 1.48794 54.0742 1.48778C53.7446 1.48766 53.462 1.53728 53.2261 1.63663C52.9903 1.73598 52.8099 1.87086 52.6848 2.04127C52.5597 2.21168 52.4957 2.40626 52.4928 2.62501C52.4928 2.80683 52.5339 2.96451 52.6162 3.09806C52.7014 3.23162 52.8164 3.34529 52.9613 3.43909C53.1062 3.53005 53.2666 3.60681 53.4428 3.66937C53.6189 3.73194 53.7964 3.78455 53.9754 3.82723L54.7935 4.03206C55.123 4.10888 55.4397 4.21268 55.7437 4.34347C56.0504 4.47426 56.3245 4.63913 56.5659 4.83808C56.8102 5.03703 57.0033 5.27715 57.1452 5.55845C57.2872 5.83975 57.3581 6.16932 57.3579 6.54716C57.3578 7.05852 57.2269 7.50876 56.9654 7.89788C56.7039 8.28415 56.326 8.58657 55.8316 8.80515C55.34 9.02089 54.7448 9.12864 54.046 9.12839C53.367 9.12816 52.7775 9.02284 52.2776 8.81243C51.7805 8.60203 51.3914 8.29508 51.1103 7.89157C50.832 7.48807 50.6816 6.99654 50.6591 6.41698L52.2145 6.41753C52.2371 6.72151 52.3308 6.97439 52.4955 7.17615C52.6602 7.37791 52.8746 7.52855 53.1388 7.62808C53.4058 7.7276 53.7041 7.77742 54.0337 7.77754C54.3774 7.77766 54.6786 7.72662 54.9371 7.62444C55.1985 7.51942 55.4031 7.3746 55.5509 7.19C55.6987 7.00255 55.7741 6.78382 55.777 6.53382C55.7742 6.30655 55.7075 6.11903 55.5769 5.97125C55.4463 5.82064 55.2631 5.69558 55.0273 5.59606C54.7944 5.49371 54.5217 5.40271 54.2092 5.32305L53.2164 5.06702C52.4977 4.88211 51.9296 4.60209 51.5122 4.22694C51.0975 3.84896 50.8903 3.34746 50.8905 2.72246C50.8907 2.20826 51.0301 1.75802 51.3086 1.37176C51.59 0.985491 51.9722 0.685908 52.4552 0.473008C52.9383 0.257267 53.4852 0.149503 54.096 0.149716C54.7153 0.149932 55.2579 0.258075 55.7237 0.474147C56.1924 0.687378 56.5602 0.984382 56.8271 1.36516C57.094 1.74309 57.2316 2.1778 57.24 2.66928L55.7187 2.66875ZM63.5116 2.67146C63.472 2.29929 63.3045 2.00946 63.0091 1.80197C62.7166 1.59448 62.3359 1.49066 61.8672 1.49049C61.5376 1.49038 61.2549 1.53999 61.0191 1.63934C60.7833 1.73869 60.6028 1.87357 60.4778 2.04398C60.3527 2.2144 60.2887 2.40898 60.2858 2.62773C60.2857 2.80954 60.3269 2.96723 60.4092 3.10078C60.4944 3.23433 60.6094 3.34801 60.7543 3.44181C60.8991 3.53277 61.0596 3.60953 61.2357 3.67209C61.4118 3.73465 61.5894 3.78727 61.7683 3.82995L62.5864 4.03478C62.916 4.1116 63.2327 4.2154 63.5366 4.34619C63.8434 4.47698 64.1175 4.64184 64.3589 4.84079C64.6031 5.03974 64.7962 5.27987 64.9382 5.56116C65.0801 5.84246 65.151 6.17203 65.1509 6.54988C65.1507 7.06124 65.0199 7.51148 64.7584 7.90059C64.4969 8.28686 64.119 8.58929 63.6246 8.80787C63.133 9.0236 62.5378 9.13135 61.8389 9.13111C61.16 9.13087 60.5705 9.02555 60.0706 8.81515C59.5735 8.60475 59.1844 8.2978 58.9033 7.89429C58.625 7.49078 58.4746 6.99925 58.4521 6.4197L60.0075 6.42024C60.0301 6.72423 60.1238 6.9771 60.2885 7.17886C60.4532 7.38062 60.6676 7.53127 60.9318 7.63079C61.1988 7.73032 61.4971 7.78014 61.8266 7.78025C62.1704 7.78037 62.4715 7.72934 62.7301 7.62716C62.9915 7.52213 63.1961 7.37732 63.3439 7.19271C63.4917 7.00526 63.567 6.78654 63.5699 6.53654C63.5672 6.30927 63.5005 6.12174 63.3699 5.97397C63.2392 5.82336 63.056 5.69829 62.8203 5.59878C62.5874 5.49642 62.3147 5.40542 62.0022 5.32577L61.0094 5.06974C60.2907 4.88483 59.7226 4.6048 59.3051 4.22966C58.8905 3.85167 58.6833 3.35018 58.6835 2.72518C58.6837 2.21097 58.823 1.76074 59.1016 1.37447C59.383 0.988206 59.7652 0.688623 60.2482 0.475723C60.7312 0.259982 61.2781 0.152219 61.8889 0.152431C62.5083 0.152647 63.0508 0.260791 63.5167 0.476862C63.9853 0.690094 64.3531 0.987097 64.62 1.36787C64.887 1.74581 65.0246 2.18051 65.0329 2.67199L63.5116 2.67146Z" fill="#193FC7"/>
</g>
<defs>
<filter id="filter0_d_2_4" x="0.989151" y="0.132599" width="68.164" height="16.9997" filterUnits="userSpaceOnUse" color-interpolation-filters="sRGB">
<feFlood flood-opacity="0" result="BackgroundImageFix"/>
<feColorMatrix in="SourceAlpha" type="matrix" values="0 0 0 0 0 0 0 0 0 0 0 0 0 0 0 0 0 0 127 0" result="hardAlpha"/>
<feOffset dy="4"/>
<feGaussianBlur stdDeviation="2"/>
<feComposite in2="hardAlpha" operator="out"/>
<feColorMatrix type="matrix" values="0 0 0 0 0 0 0 0 0 0 0 0 0 0 0 0 0 0 0.25 0"/>
<feBlend mode="normal" in2="BackgroundImageFix" result="effect1_dropShadow_2_4"/>
<feBlend mode="normal" in="SourceGraphic" in2="effect1_dropShadow_2_4" result="shape"/>
</filter>
</defs>
</svg>
